<svg xmlns="http://www.w3.org/2000/svg" width="720" height="240" viewBox="0 0 720 240" role="img" aria-labelledby="title desc">
  <title id="title">The Fallen Developer logo, dark mode</title>
  <desc id="desc">A geometric TFD mark with the words The Fallen Developer on a dark background.</desc>
  <rect width="720" height="240" rx="24" fill="#0b0b0b"/>
  <g transform="translate(48 52) scale(2.125)">
    <rect width="58" height="58" x="3" y="3" rx="10" fill="#1d1d1b"/>
    <path d="M12 21h24l7 7H31v20h-7V28H12z" fill="#fffdf7"/>
    <path d="M24 31h18v6H31v5h10v6H24z" fill="#fffdf7"/>
    <path d="M41 31h9l7 7v10l-7 7h-9v-7h7l3-3v-4l-3-3h-7z" fill="#7fd36b"/>
    <path d="M19 10l9 9-3 3-9-9z" fill="#a7a299"/>
    <path d="M10 20l8 8-3 3-8-8z" fill="#a7a299"/>
    <path d="M30 12l8 8-3 3-8-8z" fill="#a7a299"/>
    <path d="M42 20l10 10-4 4-10-10z" fill="#7fd36b"/>
    <path d="M47 51l-4 4 4 4 2-2-2-2 2-2z" fill="#7fd36b"/>
    <path d="M55 51l4 4-4 4-2-2 2-2-2-2z" fill="#7fd36b"/>
    <path d="M53 50h3l-4 10h-3z" fill="#7fd36b"/>
  </g>
  <text x="224" y="112" fill="#fffdf7" font-family="Inter, ui-sans-serif, system-ui, -apple-system, BlinkMacSystemFont, 'Segoe UI', sans-serif" font-size="42" font-weight="900">The Fallen</text>
  <text x="224" y="158" fill="#7fd36b" font-family="Inter, ui-sans-serif, system-ui, -apple-system, BlinkMacSystemFont, 'Segoe UI', sans-serif" font-size="42" font-weight="900">Developer</text>
</svg>
