<svg xmlns="http://www.w3.org/2000/svg" width="256" height="256" viewBox="0 0 64 64" role="img" aria-labelledby="title desc">
  <title id="title">The Fallen Developer mark</title>
  <desc id="desc">A geometric TFD monogram mark with a falling slash accent.</desc>
  <rect width="58" height="58" x="3" y="3" rx="10" fill="#111715"/>
  <path d="M12 21h24l7 7H31v20h-7V28H12z" fill="#f7f7f2"/>
  <path d="M24 31h18v6H31v5h10v6H24z" fill="#f7f7f2"/>
  <path d="M41 31h9l7 7v10l-7 7h-9v-7h7l3-3v-4l-3-3h-7z" fill="#0f8b72"/>
  <path d="M19 10l9 9-3 3-9-9z" fill="#66746e"/>
  <path d="M10 20l8 8-3 3-8-8z" fill="#66746e"/>
  <path d="M30 12l8 8-3 3-8-8z" fill="#66746e"/>
  <path d="M42 20l10 10-4 4-10-10z" fill="#0f8b72"/>
  <path d="M47 51l-4 4 4 4 2-2-2-2 2-2z" fill="#0f8b72"/>
  <path d="M55 51l4 4-4 4-2-2 2-2-2-2z" fill="#0f8b72"/>
  <path d="M53 50h3l-4 10h-3z" fill="#0f8b72"/>
</svg>
